<mxfile host="app.diagrams.net" modified="2023-11-13T06:48:06.392Z" agent="Mozilla/5.0 (Windows NT 10.0; Win64; x64) AppleWebKit/537.36 (KHTML, like Gecko) Chrome/119.0.0.0 Safari/537.36" etag="O-uHoIbm5-PdW2BiHEwq" version="22.1.0" type="github">
  <diagram id="sL5Tc55srkH9KubWSJzO" name="Page-1">
    <mxGraphModel dx="1834" dy="1190" grid="1" gridSize="10" guides="1" tooltips="1" connect="1" arrows="1" fold="1" page="0" pageScale="1" pageWidth="850" pageHeight="1100" background="none" math="0" shadow="0">
      <root>
        <mxCell id="0" />
        <mxCell id="1" parent="0" />
        <mxCell id="DqaYeUk1Fyd7Ufu1RzYX-1" value="redemption-service" style="shape=umlLifeline;perimeter=lifelinePerimeter;whiteSpace=wrap;html=1;container=1;dropTarget=0;collapsible=0;recursiveResize=0;outlineConnect=0;portConstraint=eastwest;newEdgeStyle={&quot;curved&quot;:0,&quot;rounded&quot;:0};fillColor=#e1d5e7;strokeColor=#9673a6;" parent="1" vertex="1">
          <mxGeometry x="-10" y="-255" width="100" height="1975" as="geometry" />
        </mxCell>
        <mxCell id="DqaYeUk1Fyd7Ufu1RzYX-5" value="RabbitMQ" style="shape=umlLifeline;perimeter=lifelinePerimeter;whiteSpace=wrap;html=1;container=0;dropTarget=0;collapsible=0;recursiveResize=0;outlineConnect=0;portConstraint=eastwest;newEdgeStyle={&quot;curved&quot;:0,&quot;rounded&quot;:0};fillColor=#f0a30a;strokeColor=#BD7000;fontColor=#000000;" parent="1" vertex="1">
          <mxGeometry x="200" y="-255" width="100" height="1975" as="geometry" />
        </mxCell>
        <mxCell id="DqaYeUk1Fyd7Ufu1RzYX-11" value="account-service" style="shape=umlLifeline;perimeter=lifelinePerimeter;whiteSpace=wrap;html=1;container=1;dropTarget=0;collapsible=0;recursiveResize=0;outlineConnect=0;portConstraint=eastwest;newEdgeStyle={&quot;curved&quot;:0,&quot;rounded&quot;:0};fillColor=#d5e8d4;strokeColor=#82b366;" parent="1" vertex="1">
          <mxGeometry x="669" y="-255" width="100" height="1975" as="geometry" />
        </mxCell>
        <mxCell id="cOzLhtD-aJ4Guky27_UA-69" value="T24" style="shape=umlLifeline;perimeter=lifelinePerimeter;whiteSpace=wrap;html=1;container=1;dropTarget=0;collapsible=0;recursiveResize=0;outlineConnect=0;portConstraint=eastwest;newEdgeStyle={&quot;curved&quot;:0,&quot;rounded&quot;:0};fillColor=#bac8d3;strokeColor=#23445d;" parent="1" vertex="1">
          <mxGeometry x="940" y="-255" width="100" height="1975" as="geometry" />
        </mxCell>
        <mxCell id="cOzLhtD-aJ4Guky27_UA-6" value="transfer-service" style="shape=umlLifeline;perimeter=lifelinePerimeter;whiteSpace=wrap;html=1;container=1;dropTarget=0;collapsible=0;recursiveResize=0;outlineConnect=0;portConstraint=eastwest;newEdgeStyle={&quot;curved&quot;:0,&quot;rounded&quot;:0};fillColor=#b1ddf0;strokeColor=#10739e;" parent="1" vertex="1">
          <mxGeometry x="388" y="-255" width="100" height="1975" as="geometry" />
        </mxCell>
        <mxCell id="V1dpAdhTbEsZ1fcURhdF-4" value="" style="group" parent="1" vertex="1" connectable="0">
          <mxGeometry x="150" y="642" width="440" height="127" as="geometry" />
        </mxCell>
        <mxCell id="0UwZ2OLHna-2qC7f4V6y-97" value="opt" style="shape=umlFrame;whiteSpace=wrap;html=1;pointerEvents=0;container=0;" parent="V1dpAdhTbEsZ1fcURhdF-4" vertex="1">
          <mxGeometry width="440" height="127" as="geometry" />
        </mxCell>
        <mxCell id="0UwZ2OLHna-2qC7f4V6y-99" value="[card credited]" style="text;html=1;align=center;verticalAlign=middle;resizable=0;points=[];autosize=1;strokeColor=none;fillColor=none;container=0;" parent="V1dpAdhTbEsZ1fcURhdF-4" vertex="1">
          <mxGeometry y="30" width="100" height="30" as="geometry" />
        </mxCell>
        <mxCell id="0UwZ2OLHna-2qC7f4V6y-48" value="" style="html=1;points=[];perimeter=orthogonalPerimeter;fillColor=#f0a30a;fontColor=#000000;strokeColor=#BD7000;container=0;" parent="V1dpAdhTbEsZ1fcURhdF-4" vertex="1">
          <mxGeometry x="95" y="21" width="10" height="90" as="geometry" />
        </mxCell>
        <mxCell id="0UwZ2OLHna-2qC7f4V6y-49" value="6: receive TransactionRecorded" style="html=1;verticalAlign=bottom;endArrow=block;rounded=0;" parent="V1dpAdhTbEsZ1fcURhdF-4" target="0UwZ2OLHna-2qC7f4V6y-50" edge="1">
          <mxGeometry width="80" relative="1" as="geometry">
            <mxPoint x="105" y="21" as="sourcePoint" />
            <mxPoint x="260" y="21" as="targetPoint" />
          </mxGeometry>
        </mxCell>
        <mxCell id="0UwZ2OLHna-2qC7f4V6y-50" value="" style="html=1;points=[];perimeter=orthogonalPerimeter;fillColor=#b1ddf0;strokeColor=#10739e;container=0;" parent="V1dpAdhTbEsZ1fcURhdF-4" vertex="1">
          <mxGeometry x="284" y="21" width="10" height="90" as="geometry" />
        </mxCell>
        <mxCell id="0UwZ2OLHna-2qC7f4V6y-51" value="" style="html=1;verticalAlign=bottom;endArrow=open;dashed=1;endSize=8;rounded=0;" parent="V1dpAdhTbEsZ1fcURhdF-4" edge="1">
          <mxGeometry relative="1" as="geometry">
            <mxPoint x="105" y="111" as="targetPoint" />
            <mxPoint x="284" y="111" as="sourcePoint" />
          </mxGeometry>
        </mxCell>
        <mxCell id="0UwZ2OLHna-2qC7f4V6y-53" value="" style="html=1;points=[];perimeter=orthogonalPerimeter;fillColor=#b1ddf0;strokeColor=#10739e;container=0;" parent="V1dpAdhTbEsZ1fcURhdF-4" vertex="1">
          <mxGeometry x="290" y="51" width="10" height="20" as="geometry" />
        </mxCell>
        <mxCell id="0UwZ2OLHna-2qC7f4V6y-54" value="6.1: complete transfer" style="edgeStyle=orthogonalEdgeStyle;html=1;align=left;spacingLeft=2;endArrow=block;rounded=0;entryX=1;entryY=0;" parent="V1dpAdhTbEsZ1fcURhdF-4" target="0UwZ2OLHna-2qC7f4V6y-53" edge="1">
          <mxGeometry relative="1" as="geometry">
            <mxPoint x="295" y="31" as="sourcePoint" />
            <Array as="points">
              <mxPoint x="325" y="31" />
            </Array>
          </mxGeometry>
        </mxCell>
        <mxCell id="0UwZ2OLHna-2qC7f4V6y-56" value="" style="html=1;points=[];perimeter=orthogonalPerimeter;fillColor=#f0a30a;fontColor=#000000;strokeColor=#BD7000;container=0;" parent="V1dpAdhTbEsZ1fcURhdF-4" vertex="1">
          <mxGeometry x="101" y="76" width="10" height="20" as="geometry" />
        </mxCell>
        <mxCell id="0UwZ2OLHna-2qC7f4V6y-57" value="6.2: send TransferCompleted" style="html=1;verticalAlign=bottom;endArrow=block;rounded=0;exitX=-0.03;exitY=0.61;exitDx=0;exitDy=0;exitPerimeter=0;" parent="V1dpAdhTbEsZ1fcURhdF-4" source="0UwZ2OLHna-2qC7f4V6y-50" target="0UwZ2OLHna-2qC7f4V6y-56" edge="1">
          <mxGeometry relative="1" as="geometry">
            <mxPoint x="134" y="56" as="targetPoint" />
            <mxPoint x="274" y="21" as="sourcePoint" />
          </mxGeometry>
        </mxCell>
        <mxCell id="0UwZ2OLHna-2qC7f4V6y-58" value="" style="html=1;verticalAlign=bottom;endArrow=open;dashed=1;endSize=8;rounded=0;entryX=-0.042;entryY=0.824;entryDx=0;entryDy=0;entryPerimeter=0;" parent="V1dpAdhTbEsZ1fcURhdF-4" source="0UwZ2OLHna-2qC7f4V6y-56" target="0UwZ2OLHna-2qC7f4V6y-50" edge="1">
          <mxGeometry relative="1" as="geometry">
            <mxPoint x="144" y="75" as="sourcePoint" />
            <mxPoint x="274" y="40" as="targetPoint" />
          </mxGeometry>
        </mxCell>
        <mxCell id="V1dpAdhTbEsZ1fcURhdF-7" value="" style="group" parent="1" vertex="1" connectable="0">
          <mxGeometry x="-80" y="812" width="350" height="147" as="geometry" />
        </mxCell>
        <mxCell id="0UwZ2OLHna-2qC7f4V6y-83" value="" style="html=1;points=[];perimeter=orthogonalPerimeter;fillColor=#e1d5e7;strokeColor=#9673a6;container=0;" parent="V1dpAdhTbEsZ1fcURhdF-7" vertex="1">
          <mxGeometry x="115" y="66" width="10" height="60" as="geometry" />
        </mxCell>
        <mxCell id="0UwZ2OLHna-2qC7f4V6y-84" value="" style="html=1;points=[];perimeter=orthogonalPerimeter;fillColor=#f0a30a;fontColor=#000000;strokeColor=#BD7000;container=0;" parent="V1dpAdhTbEsZ1fcURhdF-7" vertex="1">
          <mxGeometry x="325" y="66" width="10" height="60" as="geometry" />
        </mxCell>
        <mxCell id="0UwZ2OLHna-2qC7f4V6y-85" value="7: receive TransferCompleted" style="html=1;verticalAlign=bottom;endArrow=block;rounded=0;exitX=0.011;exitY=-0.003;exitDx=0;exitDy=0;exitPerimeter=0;entryX=1.008;entryY=0.005;entryDx=0;entryDy=0;entryPerimeter=0;" parent="V1dpAdhTbEsZ1fcURhdF-7" source="0UwZ2OLHna-2qC7f4V6y-84" target="0UwZ2OLHna-2qC7f4V6y-83" edge="1">
          <mxGeometry relative="1" as="geometry">
            <mxPoint x="130" y="66" as="targetPoint" />
            <mxPoint x="321" y="66" as="sourcePoint" />
          </mxGeometry>
        </mxCell>
        <mxCell id="0UwZ2OLHna-2qC7f4V6y-86" value="" style="html=1;verticalAlign=bottom;endArrow=open;dashed=1;endSize=8;curved=0;rounded=0;exitX=1.111;exitY=0.99;exitDx=0;exitDy=0;exitPerimeter=0;entryX=-0.08;entryY=1.003;entryDx=0;entryDy=0;entryPerimeter=0;" parent="V1dpAdhTbEsZ1fcURhdF-7" source="0UwZ2OLHna-2qC7f4V6y-83" target="0UwZ2OLHna-2qC7f4V6y-84" edge="1">
          <mxGeometry relative="1" as="geometry">
            <mxPoint x="250" y="166" as="sourcePoint" />
            <mxPoint x="330" y="166" as="targetPoint" />
          </mxGeometry>
        </mxCell>
        <mxCell id="0UwZ2OLHna-2qC7f4V6y-88" value="" style="html=1;points=[[0,0,0,0,5],[0,1,0,0,-5],[1,0,0,0,5],[1,1,0,0,-5]];perimeter=orthogonalPerimeter;outlineConnect=0;targetShapes=umlLifeline;portConstraint=eastwest;newEdgeStyle={&quot;curved&quot;:0,&quot;rounded&quot;:0};fillColor=#f0a30a;fontColor=#000000;strokeColor=#BD7000;container=0;" parent="V1dpAdhTbEsZ1fcURhdF-7" vertex="1">
          <mxGeometry x="318" y="90" width="10" height="20" as="geometry" />
        </mxCell>
        <mxCell id="0UwZ2OLHna-2qC7f4V6y-89" value="7.1: send RedemptionCompleted" style="html=1;verticalAlign=bottom;endArrow=block;curved=0;rounded=0;exitX=1.032;exitY=0.419;exitDx=0;exitDy=0;exitPerimeter=0;entryX=-0.031;entryY=-0.017;entryDx=0;entryDy=0;entryPerimeter=0;" parent="V1dpAdhTbEsZ1fcURhdF-7" source="0UwZ2OLHna-2qC7f4V6y-83" target="0UwZ2OLHna-2qC7f4V6y-88" edge="1">
          <mxGeometry relative="1" as="geometry">
            <mxPoint x="128.41000000000008" y="90.88000000000011" as="sourcePoint" />
            <mxPoint x="307" y="96" as="targetPoint" />
          </mxGeometry>
        </mxCell>
        <mxCell id="0UwZ2OLHna-2qC7f4V6y-90" value="" style="html=1;verticalAlign=bottom;endArrow=open;dashed=1;endSize=8;curved=0;rounded=0;entryX=1.014;entryY=0.738;entryDx=0;entryDy=0;entryPerimeter=0;exitX=-0.04;exitY=1.02;exitDx=0;exitDy=0;exitPerimeter=0;" parent="V1dpAdhTbEsZ1fcURhdF-7" source="0UwZ2OLHna-2qC7f4V6y-88" target="0UwZ2OLHna-2qC7f4V6y-83" edge="1">
          <mxGeometry relative="1" as="geometry">
            <mxPoint x="128.71000000000004" y="110.22000000000025" as="targetPoint" />
            <mxPoint x="307" y="106" as="sourcePoint" />
          </mxGeometry>
        </mxCell>
        <mxCell id="V1dpAdhTbEsZ1fcURhdF-5" value="opt" style="shape=umlFrame;whiteSpace=wrap;html=1;pointerEvents=0;" parent="V1dpAdhTbEsZ1fcURhdF-7" vertex="1">
          <mxGeometry width="350" height="147" as="geometry" />
        </mxCell>
        <mxCell id="V1dpAdhTbEsZ1fcURhdF-6" value="[transfer completed]" style="text;html=1;align=center;verticalAlign=middle;resizable=0;points=[];autosize=1;strokeColor=none;fillColor=none;" parent="V1dpAdhTbEsZ1fcURhdF-7" vertex="1">
          <mxGeometry y="36" width="130" height="30" as="geometry" />
        </mxCell>
        <mxCell id="V1dpAdhTbEsZ1fcURhdF-15" value="" style="group" parent="1" vertex="1" connectable="0">
          <mxGeometry x="90" y="1001" width="500" height="160" as="geometry" />
        </mxCell>
        <mxCell id="V1dpAdhTbEsZ1fcURhdF-13" value="opt" style="shape=umlFrame;whiteSpace=wrap;html=1;pointerEvents=0;" parent="V1dpAdhTbEsZ1fcURhdF-15" vertex="1">
          <mxGeometry width="500" height="160" as="geometry" />
        </mxCell>
        <mxCell id="V1dpAdhTbEsZ1fcURhdF-14" value="[transactin creation failed]" style="text;html=1;align=center;verticalAlign=middle;resizable=0;points=[];autosize=1;strokeColor=none;fillColor=none;" parent="V1dpAdhTbEsZ1fcURhdF-15" vertex="1">
          <mxGeometry y="30" width="160" height="30" as="geometry" />
        </mxCell>
        <mxCell id="0UwZ2OLHna-2qC7f4V6y-213" value="" style="group" parent="V1dpAdhTbEsZ1fcURhdF-15" vertex="1" connectable="0">
          <mxGeometry x="155" y="35" width="230" height="90" as="geometry" />
        </mxCell>
        <mxCell id="0UwZ2OLHna-2qC7f4V6y-214" value="" style="html=1;points=[];perimeter=orthogonalPerimeter;fillColor=#b1ddf0;strokeColor=#10739e;container=0;" parent="0UwZ2OLHna-2qC7f4V6y-213" vertex="1">
          <mxGeometry x="189" width="10" height="90" as="geometry" />
        </mxCell>
        <mxCell id="0UwZ2OLHna-2qC7f4V6y-215" value="" style="html=1;points=[];perimeter=orthogonalPerimeter;fillColor=#b1ddf0;strokeColor=#10739e;container=0;" parent="0UwZ2OLHna-2qC7f4V6y-213" vertex="1">
          <mxGeometry x="195" y="30" width="10" height="20" as="geometry" />
        </mxCell>
        <mxCell id="0UwZ2OLHna-2qC7f4V6y-216" value="" style="html=1;verticalAlign=bottom;endArrow=open;dashed=1;endSize=8;rounded=0;exitX=1.016;exitY=1.021;exitDx=0;exitDy=0;exitPerimeter=0;" parent="0UwZ2OLHna-2qC7f4V6y-213" source="0UwZ2OLHna-2qC7f4V6y-221" target="0UwZ2OLHna-2qC7f4V6y-214" edge="1">
          <mxGeometry relative="1" as="geometry">
            <mxPoint x="49" y="54" as="sourcePoint" />
            <mxPoint x="188.57999999999993" y="74.15999999999985" as="targetPoint" />
          </mxGeometry>
        </mxCell>
        <mxCell id="0UwZ2OLHna-2qC7f4V6y-217" value="" style="html=1;points=[];perimeter=orthogonalPerimeter;fillColor=#f0a30a;fontColor=#000000;strokeColor=#BD7000;container=0;" parent="0UwZ2OLHna-2qC7f4V6y-213" vertex="1">
          <mxGeometry width="10" height="90" as="geometry" />
        </mxCell>
        <mxCell id="0UwZ2OLHna-2qC7f4V6y-218" value="10: receive FailedTransactionRecorded" style="html=1;verticalAlign=bottom;endArrow=block;rounded=0;entryX=-0.08;entryY=0.005;entryDx=0;entryDy=0;entryPerimeter=0;" parent="0UwZ2OLHna-2qC7f4V6y-213" target="0UwZ2OLHna-2qC7f4V6y-214" edge="1">
          <mxGeometry width="80" relative="1" as="geometry">
            <mxPoint x="10" as="sourcePoint" />
            <mxPoint x="189" as="targetPoint" />
          </mxGeometry>
        </mxCell>
        <mxCell id="0UwZ2OLHna-2qC7f4V6y-219" value="" style="html=1;verticalAlign=bottom;endArrow=open;dashed=1;endSize=8;rounded=0;exitX=0.012;exitY=1.002;exitDx=0;exitDy=0;exitPerimeter=0;" parent="0UwZ2OLHna-2qC7f4V6y-213" source="0UwZ2OLHna-2qC7f4V6y-214" edge="1">
          <mxGeometry relative="1" as="geometry">
            <mxPoint x="10" y="90" as="targetPoint" />
            <mxPoint x="189" y="90" as="sourcePoint" />
          </mxGeometry>
        </mxCell>
        <mxCell id="0UwZ2OLHna-2qC7f4V6y-220" value="10.1: cancel transfer" style="edgeStyle=orthogonalEdgeStyle;html=1;align=left;spacingLeft=2;endArrow=block;rounded=0;entryX=0.99;entryY=-0.005;entryDx=0;entryDy=0;entryPerimeter=0;" parent="0UwZ2OLHna-2qC7f4V6y-213" target="0UwZ2OLHna-2qC7f4V6y-215" edge="1">
          <mxGeometry relative="1" as="geometry">
            <mxPoint x="200" y="10" as="sourcePoint" />
            <Array as="points">
              <mxPoint x="230" y="10" />
              <mxPoint x="230" y="30" />
            </Array>
            <mxPoint x="205" y="30" as="targetPoint" />
          </mxGeometry>
        </mxCell>
        <mxCell id="0UwZ2OLHna-2qC7f4V6y-221" value="" style="html=1;points=[];perimeter=orthogonalPerimeter;fillColor=#f0a30a;fontColor=#000000;strokeColor=#BD7000;container=0;" parent="0UwZ2OLHna-2qC7f4V6y-213" vertex="1">
          <mxGeometry x="6" y="55" width="10" height="20" as="geometry" />
        </mxCell>
        <mxCell id="0UwZ2OLHna-2qC7f4V6y-222" value="10.2: send TransferCancelled" style="html=1;verticalAlign=bottom;endArrow=block;rounded=0;exitX=-0.03;exitY=0.61;exitDx=0;exitDy=0;exitPerimeter=0;" parent="0UwZ2OLHna-2qC7f4V6y-213" target="0UwZ2OLHna-2qC7f4V6y-221" edge="1">
          <mxGeometry relative="1" as="geometry">
            <mxPoint x="39" y="35" as="targetPoint" />
            <mxPoint x="188.69999999999982" y="54.899999999999636" as="sourcePoint" />
          </mxGeometry>
        </mxCell>
        <mxCell id="V1dpAdhTbEsZ1fcURhdF-22" value="" style="group" parent="1" vertex="1" connectable="0">
          <mxGeometry x="-110" y="-180" width="365" height="32" as="geometry" />
        </mxCell>
        <mxCell id="DqaYeUk1Fyd7Ufu1RzYX-4" value="1: redeem" style="html=1;verticalAlign=bottom;startArrow=oval;startFill=1;endArrow=block;startSize=8;rounded=0;" parent="V1dpAdhTbEsZ1fcURhdF-22" target="DqaYeUk1Fyd7Ufu1RzYX-10" edge="1">
          <mxGeometry width="60" relative="1" as="geometry">
            <mxPoint as="sourcePoint" />
            <mxPoint x="140" y="300" as="targetPoint" />
          </mxGeometry>
        </mxCell>
        <mxCell id="DqaYeUk1Fyd7Ufu1RzYX-10" value="" style="html=1;points=[];perimeter=orthogonalPerimeter;fillColor=#e1d5e7;strokeColor=#9673a6;container=0;" parent="V1dpAdhTbEsZ1fcURhdF-22" vertex="1">
          <mxGeometry x="145" width="10" height="30" as="geometry" />
        </mxCell>
        <mxCell id="DqaYeUk1Fyd7Ufu1RzYX-7" value="" style="html=1;points=[];perimeter=orthogonalPerimeter;fillColor=#f0a30a;fontColor=#000000;strokeColor=#BD7000;container=0;" parent="V1dpAdhTbEsZ1fcURhdF-22" vertex="1">
          <mxGeometry x="355" y="12" width="10" height="20" as="geometry" />
        </mxCell>
        <mxCell id="DqaYeUk1Fyd7Ufu1RzYX-8" value="1.1: send RedemptionInitiated" style="html=1;verticalAlign=bottom;endArrow=block;entryX=0;entryY=0;rounded=0;" parent="V1dpAdhTbEsZ1fcURhdF-22" source="DqaYeUk1Fyd7Ufu1RzYX-10" target="DqaYeUk1Fyd7Ufu1RzYX-7" edge="1">
          <mxGeometry relative="1" as="geometry">
            <mxPoint x="50" y="-100" as="sourcePoint" />
          </mxGeometry>
        </mxCell>
        <mxCell id="DqaYeUk1Fyd7Ufu1RzYX-9" value="" style="html=1;verticalAlign=bottom;endArrow=open;dashed=1;endSize=8;exitX=0;exitY=0.95;rounded=0;" parent="V1dpAdhTbEsZ1fcURhdF-22" source="DqaYeUk1Fyd7Ufu1RzYX-7" target="DqaYeUk1Fyd7Ufu1RzYX-10" edge="1">
          <mxGeometry relative="1" as="geometry">
            <mxPoint x="50" y="-80" as="targetPoint" />
          </mxGeometry>
        </mxCell>
        <mxCell id="V1dpAdhTbEsZ1fcURhdF-23" value="" style="group" parent="1" vertex="1" connectable="0">
          <mxGeometry x="245" y="-120" width="230" height="90" as="geometry" />
        </mxCell>
        <mxCell id="cOzLhtD-aJ4Guky27_UA-27" value="" style="html=1;points=[];perimeter=orthogonalPerimeter;fillColor=#f0a30a;fontColor=#000000;strokeColor=#BD7000;container=0;" parent="V1dpAdhTbEsZ1fcURhdF-23" vertex="1">
          <mxGeometry width="10" height="90" as="geometry" />
        </mxCell>
        <mxCell id="cOzLhtD-aJ4Guky27_UA-28" value="2: receive RedemptionInitiated" style="html=1;verticalAlign=bottom;endArrow=block;rounded=0;" parent="V1dpAdhTbEsZ1fcURhdF-23" target="cOzLhtD-aJ4Guky27_UA-29" edge="1">
          <mxGeometry width="80" relative="1" as="geometry">
            <mxPoint x="10" as="sourcePoint" />
            <mxPoint x="165" as="targetPoint" />
          </mxGeometry>
        </mxCell>
        <mxCell id="cOzLhtD-aJ4Guky27_UA-29" value="" style="html=1;points=[];perimeter=orthogonalPerimeter;fillColor=#b1ddf0;strokeColor=#10739e;container=0;" parent="V1dpAdhTbEsZ1fcURhdF-23" vertex="1">
          <mxGeometry x="189" width="10" height="90" as="geometry" />
        </mxCell>
        <mxCell id="cOzLhtD-aJ4Guky27_UA-40" value="" style="html=1;verticalAlign=bottom;endArrow=open;dashed=1;endSize=8;rounded=0;" parent="V1dpAdhTbEsZ1fcURhdF-23" edge="1">
          <mxGeometry relative="1" as="geometry">
            <mxPoint x="10" y="90" as="targetPoint" />
            <mxPoint x="189" y="90" as="sourcePoint" />
          </mxGeometry>
        </mxCell>
        <mxCell id="cOzLhtD-aJ4Guky27_UA-31" value="" style="html=1;points=[];perimeter=orthogonalPerimeter;fillColor=#b1ddf0;strokeColor=#10739e;container=0;" parent="V1dpAdhTbEsZ1fcURhdF-23" vertex="1">
          <mxGeometry x="195" y="30" width="10" height="20" as="geometry" />
        </mxCell>
        <mxCell id="cOzLhtD-aJ4Guky27_UA-32" value="2.1: create transfer" style="edgeStyle=orthogonalEdgeStyle;html=1;align=left;spacingLeft=2;endArrow=block;rounded=0;entryX=1;entryY=0;" parent="V1dpAdhTbEsZ1fcURhdF-23" target="cOzLhtD-aJ4Guky27_UA-31" edge="1">
          <mxGeometry relative="1" as="geometry">
            <mxPoint x="200" y="10" as="sourcePoint" />
            <Array as="points">
              <mxPoint x="230" y="10" />
            </Array>
          </mxGeometry>
        </mxCell>
        <mxCell id="cOzLhtD-aJ4Guky27_UA-39" value="" style="html=1;points=[];perimeter=orthogonalPerimeter;fillColor=#f0a30a;fontColor=#000000;strokeColor=#BD7000;container=0;" parent="V1dpAdhTbEsZ1fcURhdF-23" vertex="1">
          <mxGeometry x="6" y="55" width="10" height="20" as="geometry" />
        </mxCell>
        <mxCell id="cOzLhtD-aJ4Guky27_UA-37" value="2.2: send TransferCreated" style="html=1;verticalAlign=bottom;endArrow=block;rounded=0;exitX=-0.03;exitY=0.61;exitDx=0;exitDy=0;exitPerimeter=0;" parent="V1dpAdhTbEsZ1fcURhdF-23" source="cOzLhtD-aJ4Guky27_UA-29" target="cOzLhtD-aJ4Guky27_UA-39" edge="1">
          <mxGeometry relative="1" as="geometry">
            <mxPoint x="39" y="35" as="targetPoint" />
            <mxPoint x="179" as="sourcePoint" />
          </mxGeometry>
        </mxCell>
        <mxCell id="cOzLhtD-aJ4Guky27_UA-38" value="" style="html=1;verticalAlign=bottom;endArrow=open;dashed=1;endSize=8;rounded=0;entryX=-0.042;entryY=0.824;entryDx=0;entryDy=0;entryPerimeter=0;" parent="V1dpAdhTbEsZ1fcURhdF-23" source="cOzLhtD-aJ4Guky27_UA-39" target="cOzLhtD-aJ4Guky27_UA-29" edge="1">
          <mxGeometry relative="1" as="geometry">
            <mxPoint x="49" y="54" as="sourcePoint" />
            <mxPoint x="179" y="19" as="targetPoint" />
          </mxGeometry>
        </mxCell>
        <mxCell id="V1dpAdhTbEsZ1fcURhdF-26" value="" style="group" parent="1" vertex="1" connectable="0">
          <mxGeometry x="130" y="2" width="750" height="270" as="geometry" />
        </mxCell>
        <mxCell id="cOzLhtD-aJ4Guky27_UA-3" value="" style="endArrow=none;dashed=1;html=1;rounded=0;exitX=0;exitY=0.52;exitDx=0;exitDy=0;exitPerimeter=0;entryX=1.002;entryY=0.509;entryDx=0;entryDy=0;entryPerimeter=0;" parent="V1dpAdhTbEsZ1fcURhdF-26" source="DqaYeUk1Fyd7Ufu1RzYX-36" target="DqaYeUk1Fyd7Ufu1RzYX-36" edge="1">
          <mxGeometry width="50" height="50" relative="1" as="geometry">
            <mxPoint x="-29" y="148" as="sourcePoint" />
            <mxPoint x="721.506329113924" y="148" as="targetPoint" />
          </mxGeometry>
        </mxCell>
        <mxCell id="DqaYeUk1Fyd7Ufu1RzYX-36" value="alt" style="shape=umlFrame;whiteSpace=wrap;html=1;container=0;" parent="V1dpAdhTbEsZ1fcURhdF-26" vertex="1">
          <mxGeometry y="51" width="750" height="190" as="geometry" />
        </mxCell>
        <mxCell id="cOzLhtD-aJ4Guky27_UA-41" value="" style="html=1;points=[];perimeter=orthogonalPerimeter;fillColor=#f0a30a;strokeColor=#BD7000;fontColor=#000000;container=0;" parent="V1dpAdhTbEsZ1fcURhdF-26" vertex="1">
          <mxGeometry x="115" width="10" height="270" as="geometry" />
        </mxCell>
        <mxCell id="cOzLhtD-aJ4Guky27_UA-42" value="3: receive TransferCreated" style="html=1;verticalAlign=bottom;endArrow=block;rounded=0;" parent="V1dpAdhTbEsZ1fcURhdF-26" target="cOzLhtD-aJ4Guky27_UA-43" edge="1">
          <mxGeometry x="-0.0015" width="80" relative="1" as="geometry">
            <mxPoint x="125" as="sourcePoint" />
            <mxPoint x="280" as="targetPoint" />
            <mxPoint as="offset" />
          </mxGeometry>
        </mxCell>
        <mxCell id="cOzLhtD-aJ4Guky27_UA-43" value="" style="html=1;points=[];perimeter=orthogonalPerimeter;fillColor=#d5e8d4;strokeColor=#82b366;container=0;" parent="V1dpAdhTbEsZ1fcURhdF-26" vertex="1">
          <mxGeometry x="584" width="10" height="270" as="geometry" />
        </mxCell>
        <mxCell id="cOzLhtD-aJ4Guky27_UA-50" value="" style="html=1;verticalAlign=bottom;endArrow=open;dashed=1;endSize=8;rounded=0;" parent="V1dpAdhTbEsZ1fcURhdF-26" edge="1">
          <mxGeometry relative="1" as="geometry">
            <mxPoint x="125" y="270" as="targetPoint" />
            <mxPoint x="584" y="270" as="sourcePoint" />
          </mxGeometry>
        </mxCell>
        <mxCell id="cOzLhtD-aJ4Guky27_UA-49" value="" style="html=1;points=[];perimeter=orthogonalPerimeter;fillColor=#f0a30a;fontColor=#000000;strokeColor=#BD7000;container=0;" parent="V1dpAdhTbEsZ1fcURhdF-26" vertex="1">
          <mxGeometry x="121" y="109" width="10" height="20" as="geometry" />
        </mxCell>
        <mxCell id="cOzLhtD-aJ4Guky27_UA-47" value="3.3: send AccountDebited" style="html=1;verticalAlign=bottom;endArrow=block;rounded=0;exitX=-0.027;exitY=0.408;exitDx=0;exitDy=0;entryX=1.042;entryY=-0.014;entryDx=0;entryDy=0;entryPerimeter=0;exitPerimeter=0;" parent="V1dpAdhTbEsZ1fcURhdF-26" source="cOzLhtD-aJ4Guky27_UA-43" target="cOzLhtD-aJ4Guky27_UA-49" edge="1">
          <mxGeometry relative="1" as="geometry">
            <mxPoint x="134" y="1" as="targetPoint" />
            <mxPoint x="574" y="1" as="sourcePoint" />
          </mxGeometry>
        </mxCell>
        <mxCell id="cOzLhtD-aJ4Guky27_UA-48" value="" style="html=1;verticalAlign=bottom;endArrow=open;dashed=1;endSize=8;rounded=0;entryX=-0.006;entryY=0.477;entryDx=0;entryDy=0;entryPerimeter=0;" parent="V1dpAdhTbEsZ1fcURhdF-26" source="cOzLhtD-aJ4Guky27_UA-49" target="cOzLhtD-aJ4Guky27_UA-43" edge="1">
          <mxGeometry relative="1" as="geometry">
            <mxPoint x="164" as="sourcePoint" />
            <mxPoint x="574" y="20" as="targetPoint" />
          </mxGeometry>
        </mxCell>
        <mxCell id="cOzLhtD-aJ4Guky27_UA-62" value="" style="html=1;points=[];perimeter=orthogonalPerimeter;fillColor=#f0a30a;fontColor=#000000;strokeColor=#BD7000;container=0;" parent="V1dpAdhTbEsZ1fcURhdF-26" vertex="1">
          <mxGeometry x="121" y="189" width="10" height="20" as="geometry" />
        </mxCell>
        <mxCell id="cOzLhtD-aJ4Guky27_UA-63" value="3.4: send AccountDebitFailed" style="html=1;verticalAlign=bottom;endArrow=block;rounded=0;exitX=-0.031;exitY=0.701;exitDx=0;exitDy=0;exitPerimeter=0;entryX=1.06;entryY=-0.016;entryDx=0;entryDy=0;entryPerimeter=0;" parent="V1dpAdhTbEsZ1fcURhdF-26" source="cOzLhtD-aJ4Guky27_UA-43" target="cOzLhtD-aJ4Guky27_UA-62" edge="1">
          <mxGeometry relative="1" as="geometry">
            <mxPoint x="385" y="289" as="targetPoint" />
            <mxPoint x="823.9200000000001" y="288.1600000000001" as="sourcePoint" />
          </mxGeometry>
        </mxCell>
        <mxCell id="cOzLhtD-aJ4Guky27_UA-64" value="" style="html=1;verticalAlign=bottom;endArrow=open;dashed=1;endSize=8;rounded=0;entryX=-0.031;entryY=0.777;entryDx=0;entryDy=0;entryPerimeter=0;exitX=1.072;exitY=0.944;exitDx=0;exitDy=0;exitPerimeter=0;" parent="V1dpAdhTbEsZ1fcURhdF-26" source="cOzLhtD-aJ4Guky27_UA-62" target="cOzLhtD-aJ4Guky27_UA-43" edge="1">
          <mxGeometry relative="1" as="geometry">
            <mxPoint x="380" y="308.17000000000024" as="sourcePoint" />
            <mxPoint x="823.7600000000002" y="308.46000000000026" as="targetPoint" />
          </mxGeometry>
        </mxCell>
        <mxCell id="cOzLhtD-aJ4Guky27_UA-51" value="" style="html=1;points=[];perimeter=orthogonalPerimeter;fillColor=#d5e8d4;gradientColor=none;strokeColor=#82b366;container=0;" parent="V1dpAdhTbEsZ1fcURhdF-26" vertex="1">
          <mxGeometry x="590" y="80" width="10" height="20" as="geometry" />
        </mxCell>
        <mxCell id="cOzLhtD-aJ4Guky27_UA-52" value="3.2: decrement balance" style="edgeStyle=orthogonalEdgeStyle;html=1;align=left;spacingLeft=2;endArrow=block;rounded=0;entryX=1;entryY=0;" parent="V1dpAdhTbEsZ1fcURhdF-26" target="cOzLhtD-aJ4Guky27_UA-51" edge="1">
          <mxGeometry relative="1" as="geometry">
            <mxPoint x="595" y="60" as="sourcePoint" />
            <Array as="points">
              <mxPoint x="625" y="60" />
            </Array>
          </mxGeometry>
        </mxCell>
        <mxCell id="cOzLhtD-aJ4Guky27_UA-44" value="" style="html=1;points=[];perimeter=orthogonalPerimeter;fillColor=#d5e8d4;strokeColor=#82b366;container=0;" parent="V1dpAdhTbEsZ1fcURhdF-26" vertex="1">
          <mxGeometry x="590" y="30" width="10" height="20" as="geometry" />
        </mxCell>
        <mxCell id="cOzLhtD-aJ4Guky27_UA-45" value="3.1: check balance" style="edgeStyle=orthogonalEdgeStyle;html=1;align=left;spacingLeft=2;endArrow=block;rounded=0;entryX=1;entryY=0;" parent="V1dpAdhTbEsZ1fcURhdF-26" target="cOzLhtD-aJ4Guky27_UA-44" edge="1">
          <mxGeometry relative="1" as="geometry">
            <mxPoint x="595" y="10" as="sourcePoint" />
            <Array as="points">
              <mxPoint x="625" y="10" />
            </Array>
          </mxGeometry>
        </mxCell>
        <mxCell id="DqaYeUk1Fyd7Ufu1RzYX-39" value="[sufficient funds]" style="text;html=1;align=center;verticalAlign=middle;resizable=0;points=[];autosize=1;strokeColor=none;fillColor=none;container=0;" parent="V1dpAdhTbEsZ1fcURhdF-26" vertex="1">
          <mxGeometry y="80" width="110" height="30" as="geometry" />
        </mxCell>
        <mxCell id="DqaYeUk1Fyd7Ufu1RzYX-40" value="[else]" style="text;html=1;align=center;verticalAlign=middle;resizable=0;points=[];autosize=1;strokeColor=none;fillColor=none;container=0;" parent="V1dpAdhTbEsZ1fcURhdF-26" vertex="1">
          <mxGeometry y="153" width="50" height="30" as="geometry" />
        </mxCell>
        <mxCell id="V1dpAdhTbEsZ1fcURhdF-27" value="" style="group" parent="1" vertex="1" connectable="0">
          <mxGeometry x="-120" y="310" width="1160" height="300" as="geometry" />
        </mxCell>
        <mxCell id="cOzLhtD-aJ4Guky27_UA-92" value="" style="html=1;verticalAlign=bottom;endArrow=open;dashed=1;endSize=8;exitX=0;exitY=0.95;rounded=0;entryX=0.949;entryY=0.181;entryDx=0;entryDy=0;entryPerimeter=0;" parent="V1dpAdhTbEsZ1fcURhdF-27" edge="1">
          <mxGeometry relative="1" as="geometry">
            <mxPoint x="164.49000000000024" y="85.36999999999989" as="targetPoint" />
            <mxPoint x="1105" y="88.99999999999955" as="sourcePoint" />
          </mxGeometry>
        </mxCell>
        <mxCell id="V1dpAdhTbEsZ1fcURhdF-1" value="opt" style="shape=umlFrame;whiteSpace=wrap;html=1;pointerEvents=0;container=0;" parent="V1dpAdhTbEsZ1fcURhdF-27" vertex="1">
          <mxGeometry width="1160" height="300" as="geometry" />
        </mxCell>
        <mxCell id="V1dpAdhTbEsZ1fcURhdF-2" value="[account debited]" style="text;html=1;align=center;verticalAlign=middle;resizable=0;points=[];autosize=1;strokeColor=none;fillColor=none;container=0;" parent="V1dpAdhTbEsZ1fcURhdF-27" vertex="1">
          <mxGeometry x="1" y="31" width="110" height="30" as="geometry" />
        </mxCell>
        <mxCell id="cOzLhtD-aJ4Guky27_UA-79" value="alt" style="shape=umlFrame;whiteSpace=wrap;html=1;container=0;" parent="V1dpAdhTbEsZ1fcURhdF-27" vertex="1">
          <mxGeometry x="20.0034739346342" y="64" width="1119.9965260653657" height="202" as="geometry" />
        </mxCell>
        <mxCell id="cOzLhtD-aJ4Guky27_UA-80" value="[transaction created]" style="text;html=1;align=center;verticalAlign=middle;resizable=0;points=[];autosize=1;strokeColor=none;fillColor=none;container=0;" parent="V1dpAdhTbEsZ1fcURhdF-27" vertex="1">
          <mxGeometry x="20.0034739346342" y="92.27999999999997" width="130" height="30" as="geometry" />
        </mxCell>
        <mxCell id="cOzLhtD-aJ4Guky27_UA-81" value="[else]" style="text;html=1;align=center;verticalAlign=middle;resizable=0;points=[];autosize=1;strokeColor=none;fillColor=none;container=0;" parent="V1dpAdhTbEsZ1fcURhdF-27" vertex="1">
          <mxGeometry x="20" y="169.03999999999996" width="50" height="30" as="geometry" />
        </mxCell>
        <mxCell id="cOzLhtD-aJ4Guky27_UA-82" value="" style="endArrow=none;dashed=1;html=1;rounded=0;exitX=0;exitY=0.511;exitDx=0;exitDy=0;exitPerimeter=0;entryX=1.002;entryY=0.509;entryDx=0;entryDy=0;entryPerimeter=0;" parent="V1dpAdhTbEsZ1fcURhdF-27" source="cOzLhtD-aJ4Guky27_UA-79" target="cOzLhtD-aJ4Guky27_UA-79" edge="1">
          <mxGeometry width="50" height="50" relative="1" as="geometry">
            <mxPoint x="315.97923083365123" y="554.4559999999999" as="sourcePoint" />
            <mxPoint x="904.4637578667559" y="554.4559999999999" as="targetPoint" />
          </mxGeometry>
        </mxCell>
        <mxCell id="cOzLhtD-aJ4Guky27_UA-65" value="" style="html=1;points=[];perimeter=orthogonalPerimeter;fillColor=#f0a30a;fontColor=#000000;strokeColor=#BD7000;container=0;" parent="V1dpAdhTbEsZ1fcURhdF-27" vertex="1">
          <mxGeometry x="365" y="26" width="10" height="260" as="geometry" />
        </mxCell>
        <mxCell id="cOzLhtD-aJ4Guky27_UA-66" value="4: receive AccountDebited" style="html=1;verticalAlign=bottom;endArrow=block;rounded=0;exitX=0;exitY=0;exitDx=0;exitDy=0;entryX=1.049;entryY=0.002;entryDx=0;entryDy=0;entryPerimeter=0;" parent="V1dpAdhTbEsZ1fcURhdF-27" source="cOzLhtD-aJ4Guky27_UA-65" target="cOzLhtD-aJ4Guky27_UA-93" edge="1">
          <mxGeometry relative="1" as="geometry">
            <mxPoint x="165" y="16.00000000000091" as="targetPoint" />
          </mxGeometry>
        </mxCell>
        <mxCell id="cOzLhtD-aJ4Guky27_UA-97" value="" style="html=1;verticalAlign=bottom;endArrow=open;dashed=1;endSize=8;exitX=1.047;exitY=1;rounded=0;entryX=-0.044;entryY=1;entryDx=0;entryDy=0;entryPerimeter=0;exitDx=0;exitDy=0;exitPerimeter=0;" parent="V1dpAdhTbEsZ1fcURhdF-27" source="cOzLhtD-aJ4Guky27_UA-93" target="cOzLhtD-aJ4Guky27_UA-65" edge="1">
          <mxGeometry relative="1" as="geometry">
            <mxPoint x="361" y="566" as="targetPoint" />
            <mxPoint x="162" y="565.9999999999995" as="sourcePoint" />
          </mxGeometry>
        </mxCell>
        <mxCell id="cOzLhtD-aJ4Guky27_UA-93" value="" style="html=1;points=[];perimeter=orthogonalPerimeter;fillColor=#e1d5e7;strokeColor=#9673a6;container=0;" parent="V1dpAdhTbEsZ1fcURhdF-27" vertex="1">
          <mxGeometry x="155" y="26" width="10" height="260" as="geometry" />
        </mxCell>
        <mxCell id="wTckVGv_npd_99L-YaxT-3" value="" style="html=1;points=[[0,0,0,0,5],[0,1,0,0,-5],[1,0,0,0,5],[1,1,0,0,-5]];perimeter=orthogonalPerimeter;outlineConnect=0;targetShapes=umlLifeline;portConstraint=eastwest;newEdgeStyle={&quot;curved&quot;:0,&quot;rounded&quot;:0};fillColor=#f0a30a;fontColor=#000000;strokeColor=#BD7000;container=0;" parent="V1dpAdhTbEsZ1fcURhdF-27" vertex="1">
          <mxGeometry x="360" y="221" width="10" height="20" as="geometry" />
        </mxCell>
        <mxCell id="wTckVGv_npd_99L-YaxT-4" value="4.3: send FailedTransactionRecorded" style="html=1;verticalAlign=bottom;endArrow=block;curved=0;rounded=0;fillColor=#f0a30a;strokeColor=default;entryX=0.067;entryY=-0.005;entryDx=0;entryDy=0;entryPerimeter=0;" parent="V1dpAdhTbEsZ1fcURhdF-27" source="cOzLhtD-aJ4Guky27_UA-93" target="wTckVGv_npd_99L-YaxT-3" edge="1">
          <mxGeometry relative="1" as="geometry">
            <mxPoint x="-60" y="-121" as="sourcePoint" />
            <mxPoint x="110" y="-354" as="targetPoint" />
          </mxGeometry>
        </mxCell>
        <mxCell id="wTckVGv_npd_99L-YaxT-5" value="" style="html=1;verticalAlign=bottom;endArrow=open;dashed=1;endSize=8;curved=0;rounded=0;fillColor=#f0a30a;strokeColor=default;exitX=-0.035;exitY=0.97;exitDx=0;exitDy=0;exitPerimeter=0;" parent="V1dpAdhTbEsZ1fcURhdF-27" source="wTckVGv_npd_99L-YaxT-3" target="cOzLhtD-aJ4Guky27_UA-93" edge="1">
          <mxGeometry relative="1" as="geometry">
            <mxPoint x="-70" y="-93" as="targetPoint" />
            <mxPoint x="110" y="-335" as="sourcePoint" />
          </mxGeometry>
        </mxCell>
        <mxCell id="wTckVGv_npd_99L-YaxT-103" value="" style="html=1;points=[[0,0,0,0,5],[0,1,0,0,-5],[1,0,0,0,5],[1,1,0,0,-5]];perimeter=orthogonalPerimeter;outlineConnect=0;targetShapes=umlLifeline;portConstraint=eastwest;newEdgeStyle={&quot;curved&quot;:0,&quot;rounded&quot;:0};fillColor=#f0a30a;fontColor=#000000;strokeColor=#BD7000;container=0;" parent="V1dpAdhTbEsZ1fcURhdF-27" vertex="1">
          <mxGeometry x="361" y="113" width="10" height="20" as="geometry" />
        </mxCell>
        <mxCell id="wTckVGv_npd_99L-YaxT-104" value="4.2: send TransactionRecorded" style="html=1;verticalAlign=bottom;endArrow=block;curved=0;rounded=0;fillColor=#f0a30a;strokeColor=default;entryX=-0.113;entryY=-0.032;entryDx=0;entryDy=0;entryPerimeter=0;" parent="V1dpAdhTbEsZ1fcURhdF-27" source="cOzLhtD-aJ4Guky27_UA-93" target="wTckVGv_npd_99L-YaxT-103" edge="1">
          <mxGeometry relative="1" as="geometry">
            <mxPoint x="-191" y="-873" as="sourcePoint" />
            <mxPoint x="-122" y="-878" as="targetPoint" />
          </mxGeometry>
        </mxCell>
        <mxCell id="wTckVGv_npd_99L-YaxT-105" value="" style="html=1;verticalAlign=bottom;endArrow=open;dashed=1;endSize=8;curved=0;rounded=0;fillColor=#f0a30a;strokeColor=default;exitX=-0.057;exitY=1.025;exitDx=0;exitDy=0;exitPerimeter=0;" parent="V1dpAdhTbEsZ1fcURhdF-27" source="wTckVGv_npd_99L-YaxT-103" target="cOzLhtD-aJ4Guky27_UA-93" edge="1">
          <mxGeometry relative="1" as="geometry">
            <mxPoint x="-191" y="-803" as="targetPoint" />
            <mxPoint x="-122" y="-858" as="sourcePoint" />
          </mxGeometry>
        </mxCell>
        <mxCell id="cOzLhtD-aJ4Guky27_UA-85" value="" style="html=1;points=[];perimeter=orthogonalPerimeter;fillColor=#bac8d3;strokeColor=#23445d;container=0;" parent="V1dpAdhTbEsZ1fcURhdF-27" vertex="1">
          <mxGeometry x="1105" y="46" width="10" height="140" as="geometry" />
        </mxCell>
        <mxCell id="cOzLhtD-aJ4Guky27_UA-72" value="4.1: create transaction" style="html=1;verticalAlign=bottom;endArrow=block;rounded=0;entryX=0.026;entryY=0.005;entryDx=0;entryDy=0;entryPerimeter=0;" parent="V1dpAdhTbEsZ1fcURhdF-27" source="cOzLhtD-aJ4Guky27_UA-93" target="cOzLhtD-aJ4Guky27_UA-85" edge="1">
          <mxGeometry relative="1" as="geometry">
            <mxPoint x="-839.4900000000002" y="-884" as="sourcePoint" />
            <mxPoint x="70.50999999999976" y="-874" as="targetPoint" />
          </mxGeometry>
        </mxCell>
        <mxCell id="cOzLhtD-aJ4Guky27_UA-115" value="" style="html=1;verticalAlign=bottom;endArrow=open;dashed=1;endSize=8;rounded=0;exitX=0;exitY=1.001;exitDx=0;exitDy=0;exitPerimeter=0;" parent="V1dpAdhTbEsZ1fcURhdF-27" source="cOzLhtD-aJ4Guky27_UA-85" target="cOzLhtD-aJ4Guky27_UA-93" edge="1">
          <mxGeometry relative="1" as="geometry">
            <mxPoint x="-30" y="611" as="targetPoint" />
            <mxPoint x="900" y="611" as="sourcePoint" />
          </mxGeometry>
        </mxCell>
        <mxCell id="LfEjnsofNceTjmzkakA1-2" value="" style="group" parent="1" vertex="1" connectable="0">
          <mxGeometry x="120" y="1199" width="470" height="140" as="geometry" />
        </mxCell>
        <mxCell id="V1dpAdhTbEsZ1fcURhdF-18" value="opt" style="shape=umlFrame;whiteSpace=wrap;html=1;pointerEvents=0;container=0;" parent="LfEjnsofNceTjmzkakA1-2" vertex="1">
          <mxGeometry width="470" height="140" as="geometry" />
        </mxCell>
        <mxCell id="V1dpAdhTbEsZ1fcURhdF-19" value="[account debit failed]" style="text;html=1;align=center;verticalAlign=middle;resizable=0;points=[];autosize=1;strokeColor=none;fillColor=none;container=0;" parent="LfEjnsofNceTjmzkakA1-2" vertex="1">
          <mxGeometry y="30" width="130" height="30" as="geometry" />
        </mxCell>
        <mxCell id="wTckVGv_npd_99L-YaxT-9" value="" style="html=1;points=[];perimeter=orthogonalPerimeter;fillColor=#f0a30a;fontColor=#000000;strokeColor=#BD7000;container=0;" parent="LfEjnsofNceTjmzkakA1-2" vertex="1">
          <mxGeometry x="125" y="30" width="10" height="90" as="geometry" />
        </mxCell>
        <mxCell id="wTckVGv_npd_99L-YaxT-10" value="11: receive AccountDebitFailed" style="html=1;verticalAlign=bottom;endArrow=block;rounded=0;" parent="LfEjnsofNceTjmzkakA1-2" target="wTckVGv_npd_99L-YaxT-11" edge="1">
          <mxGeometry width="80" relative="1" as="geometry">
            <mxPoint x="135" y="30" as="sourcePoint" />
            <mxPoint x="290" y="30" as="targetPoint" />
          </mxGeometry>
        </mxCell>
        <mxCell id="wTckVGv_npd_99L-YaxT-11" value="" style="html=1;points=[];perimeter=orthogonalPerimeter;fillColor=#b1ddf0;strokeColor=#10739e;container=0;" parent="LfEjnsofNceTjmzkakA1-2" vertex="1">
          <mxGeometry x="314" y="30" width="10" height="90" as="geometry" />
        </mxCell>
        <mxCell id="wTckVGv_npd_99L-YaxT-18" value="" style="html=1;verticalAlign=bottom;endArrow=open;dashed=1;endSize=8;rounded=0;" parent="LfEjnsofNceTjmzkakA1-2" edge="1">
          <mxGeometry relative="1" as="geometry">
            <mxPoint x="135" y="120" as="targetPoint" />
            <mxPoint x="314" y="120" as="sourcePoint" />
          </mxGeometry>
        </mxCell>
        <mxCell id="wTckVGv_npd_99L-YaxT-12" value="" style="html=1;points=[];perimeter=orthogonalPerimeter;fillColor=#b1ddf0;strokeColor=#10739e;container=0;" parent="LfEjnsofNceTjmzkakA1-2" vertex="1">
          <mxGeometry x="320" y="60" width="10" height="20" as="geometry" />
        </mxCell>
        <mxCell id="wTckVGv_npd_99L-YaxT-13" value="11.1: cancel transfer" style="edgeStyle=orthogonalEdgeStyle;html=1;align=left;spacingLeft=2;endArrow=block;rounded=0;entryX=1;entryY=0;" parent="LfEjnsofNceTjmzkakA1-2" target="wTckVGv_npd_99L-YaxT-12" edge="1">
          <mxGeometry relative="1" as="geometry">
            <mxPoint x="325" y="40" as="sourcePoint" />
            <Array as="points">
              <mxPoint x="355" y="40" />
            </Array>
          </mxGeometry>
        </mxCell>
        <mxCell id="wTckVGv_npd_99L-YaxT-17" value="" style="html=1;points=[];perimeter=orthogonalPerimeter;fillColor=#f0a30a;fontColor=#000000;strokeColor=#BD7000;container=0;" parent="LfEjnsofNceTjmzkakA1-2" vertex="1">
          <mxGeometry x="131" y="85" width="10" height="20" as="geometry" />
        </mxCell>
        <mxCell id="wTckVGv_npd_99L-YaxT-15" value="11.2: send TransferCancelled" style="html=1;verticalAlign=bottom;endArrow=block;rounded=0;exitX=-0.007;exitY=0.611;exitDx=0;exitDy=0;exitPerimeter=0;" parent="LfEjnsofNceTjmzkakA1-2" source="wTckVGv_npd_99L-YaxT-11" target="wTckVGv_npd_99L-YaxT-17" edge="1">
          <mxGeometry relative="1" as="geometry">
            <mxPoint x="164" y="65" as="targetPoint" />
            <mxPoint x="304" y="30" as="sourcePoint" />
          </mxGeometry>
        </mxCell>
        <mxCell id="wTckVGv_npd_99L-YaxT-16" value="" style="html=1;verticalAlign=bottom;endArrow=open;dashed=1;endSize=8;rounded=0;entryX=0.004;entryY=0.822;entryDx=0;entryDy=0;entryPerimeter=0;" parent="LfEjnsofNceTjmzkakA1-2" source="wTckVGv_npd_99L-YaxT-17" target="wTckVGv_npd_99L-YaxT-11" edge="1">
          <mxGeometry relative="1" as="geometry">
            <mxPoint x="174" y="84" as="sourcePoint" />
            <mxPoint x="304" y="49.000000000000455" as="targetPoint" />
          </mxGeometry>
        </mxCell>
        <mxCell id="LfEjnsofNceTjmzkakA1-3" value="" style="group" parent="1" vertex="1" connectable="0">
          <mxGeometry x="120" y="1379" width="770" height="160" as="geometry" />
        </mxCell>
        <mxCell id="V1dpAdhTbEsZ1fcURhdF-20" value="opt" style="shape=umlFrame;whiteSpace=wrap;html=1;pointerEvents=0;container=0;" parent="LfEjnsofNceTjmzkakA1-3" vertex="1">
          <mxGeometry width="770" height="160" as="geometry" />
        </mxCell>
        <mxCell id="V1dpAdhTbEsZ1fcURhdF-21" value="[transfer cancelled]" style="text;html=1;align=center;verticalAlign=middle;resizable=0;points=[];autosize=1;strokeColor=none;fillColor=none;container=0;" parent="LfEjnsofNceTjmzkakA1-3" vertex="1">
          <mxGeometry y="30" width="120" height="30" as="geometry" />
        </mxCell>
        <mxCell id="wTckVGv_npd_99L-YaxT-28" value="" style="html=1;points=[];perimeter=orthogonalPerimeter;fillColor=#f0a30a;strokeColor=#BD7000;fontColor=#000000;container=0;" parent="LfEjnsofNceTjmzkakA1-3" vertex="1">
          <mxGeometry x="126" y="30" width="10" height="102.06" as="geometry" />
        </mxCell>
        <mxCell id="wTckVGv_npd_99L-YaxT-29" value="12: receive TransferCancelled" style="html=1;verticalAlign=bottom;endArrow=block;rounded=0;" parent="LfEjnsofNceTjmzkakA1-3" target="wTckVGv_npd_99L-YaxT-30" edge="1">
          <mxGeometry x="-0.0015" width="80" relative="1" as="geometry">
            <mxPoint x="136" y="30" as="sourcePoint" />
            <mxPoint x="291" y="30" as="targetPoint" />
            <mxPoint as="offset" />
          </mxGeometry>
        </mxCell>
        <mxCell id="wTckVGv_npd_99L-YaxT-30" value="" style="html=1;points=[];perimeter=orthogonalPerimeter;fillColor=#d5e8d4;strokeColor=#82b366;container=0;" parent="LfEjnsofNceTjmzkakA1-3" vertex="1">
          <mxGeometry x="595" y="30" width="10" height="102.06" as="geometry" />
        </mxCell>
        <mxCell id="wTckVGv_npd_99L-YaxT-37" value="" style="html=1;verticalAlign=bottom;endArrow=open;dashed=1;endSize=8;rounded=0;entryX=1.002;entryY=1.001;entryDx=0;entryDy=0;entryPerimeter=0;exitX=-0.076;exitY=1.002;exitDx=0;exitDy=0;exitPerimeter=0;" parent="LfEjnsofNceTjmzkakA1-3" source="wTckVGv_npd_99L-YaxT-30" target="wTckVGv_npd_99L-YaxT-28" edge="1">
          <mxGeometry relative="1" as="geometry">
            <mxPoint x="136" y="300" as="targetPoint" />
            <mxPoint x="595" y="300" as="sourcePoint" />
          </mxGeometry>
        </mxCell>
        <mxCell id="wTckVGv_npd_99L-YaxT-38" value="" style="html=1;points=[];perimeter=orthogonalPerimeter;fillColor=#d5e8d4;gradientColor=none;strokeColor=#82b366;container=0;" parent="LfEjnsofNceTjmzkakA1-3" vertex="1">
          <mxGeometry x="601" y="63" width="10" height="20" as="geometry" />
        </mxCell>
        <mxCell id="wTckVGv_npd_99L-YaxT-39" value="12.1: increment balance" style="edgeStyle=orthogonalEdgeStyle;html=1;align=left;spacingLeft=2;endArrow=block;rounded=0;entryX=1;entryY=0;" parent="LfEjnsofNceTjmzkakA1-3" target="wTckVGv_npd_99L-YaxT-38" edge="1">
          <mxGeometry relative="1" as="geometry">
            <mxPoint x="606" y="43" as="sourcePoint" />
            <Array as="points">
              <mxPoint x="636" y="43" />
            </Array>
          </mxGeometry>
        </mxCell>
        <mxCell id="wTckVGv_npd_99L-YaxT-36" value="" style="html=1;points=[];perimeter=orthogonalPerimeter;fillColor=#f0a30a;fontColor=#000000;strokeColor=#BD7000;container=0;" parent="LfEjnsofNceTjmzkakA1-3" vertex="1">
          <mxGeometry x="132" y="90" width="10" height="20" as="geometry" />
        </mxCell>
        <mxCell id="wTckVGv_npd_99L-YaxT-34" value="12.2: send AccountCredited" style="html=1;verticalAlign=bottom;endArrow=block;rounded=0;exitX=-0.018;exitY=0.598;exitDx=0;exitDy=0;entryX=1.042;entryY=-0.014;entryDx=0;entryDy=0;entryPerimeter=0;exitPerimeter=0;" parent="LfEjnsofNceTjmzkakA1-3" source="wTckVGv_npd_99L-YaxT-30" target="wTckVGv_npd_99L-YaxT-36" edge="1">
          <mxGeometry relative="1" as="geometry">
            <mxPoint x="397" y="1520.94" as="targetPoint" />
            <mxPoint x="837" y="1471.94" as="sourcePoint" />
          </mxGeometry>
        </mxCell>
        <mxCell id="wTckVGv_npd_99L-YaxT-35" value="" style="html=1;verticalAlign=bottom;endArrow=open;dashed=1;endSize=8;rounded=0;entryX=-0.018;entryY=0.781;entryDx=0;entryDy=0;entryPerimeter=0;" parent="LfEjnsofNceTjmzkakA1-3" source="wTckVGv_npd_99L-YaxT-36" target="wTckVGv_npd_99L-YaxT-30" edge="1">
          <mxGeometry relative="1" as="geometry">
            <mxPoint x="427" y="1519.94" as="sourcePoint" />
            <mxPoint x="837" y="1490.94" as="targetPoint" />
          </mxGeometry>
        </mxCell>
        <mxCell id="LfEjnsofNceTjmzkakA1-4" value="" style="group" parent="1" vertex="1" connectable="0">
          <mxGeometry x="-90" y="1586" width="370" height="110" as="geometry" />
        </mxCell>
        <mxCell id="0UwZ2OLHna-2qC7f4V6y-231" value="opt" style="shape=umlFrame;whiteSpace=wrap;html=1;pointerEvents=0;container=0;" parent="LfEjnsofNceTjmzkakA1-4" vertex="1">
          <mxGeometry width="370" height="110" as="geometry" />
        </mxCell>
        <mxCell id="0UwZ2OLHna-2qC7f4V6y-232" value="[account credited]" style="text;html=1;align=center;verticalAlign=middle;resizable=0;points=[];autosize=1;strokeColor=none;fillColor=none;container=0;" parent="LfEjnsofNceTjmzkakA1-4" vertex="1">
          <mxGeometry y="30" width="120" height="30" as="geometry" />
        </mxCell>
        <mxCell id="0UwZ2OLHna-2qC7f4V6y-224" value="" style="html=1;points=[];perimeter=orthogonalPerimeter;fillColor=#e1d5e7;strokeColor=#9673a6;container=0;" parent="LfEjnsofNceTjmzkakA1-4" vertex="1">
          <mxGeometry x="125" y="26" width="10" height="60" as="geometry" />
        </mxCell>
        <mxCell id="0UwZ2OLHna-2qC7f4V6y-225" value="" style="html=1;points=[];perimeter=orthogonalPerimeter;fillColor=#f0a30a;fontColor=#000000;strokeColor=#BD7000;container=0;" parent="LfEjnsofNceTjmzkakA1-4" vertex="1">
          <mxGeometry x="335" y="26" width="10" height="60" as="geometry" />
        </mxCell>
        <mxCell id="0UwZ2OLHna-2qC7f4V6y-226" value="13: receive AccountCredited" style="html=1;verticalAlign=bottom;endArrow=block;rounded=0;exitX=0.011;exitY=-0.003;exitDx=0;exitDy=0;exitPerimeter=0;entryX=1.008;entryY=0.005;entryDx=0;entryDy=0;entryPerimeter=0;" parent="LfEjnsofNceTjmzkakA1-4" source="0UwZ2OLHna-2qC7f4V6y-225" target="0UwZ2OLHna-2qC7f4V6y-224" edge="1">
          <mxGeometry relative="1" as="geometry">
            <mxPoint x="140" y="26" as="targetPoint" />
            <mxPoint x="331" y="26" as="sourcePoint" />
          </mxGeometry>
        </mxCell>
        <mxCell id="0UwZ2OLHna-2qC7f4V6y-227" value="" style="html=1;verticalAlign=bottom;endArrow=open;dashed=1;endSize=8;curved=0;rounded=0;exitX=1.111;exitY=0.99;exitDx=0;exitDy=0;exitPerimeter=0;entryX=-0.08;entryY=1.003;entryDx=0;entryDy=0;entryPerimeter=0;" parent="LfEjnsofNceTjmzkakA1-4" source="0UwZ2OLHna-2qC7f4V6y-224" target="0UwZ2OLHna-2qC7f4V6y-225" edge="1">
          <mxGeometry relative="1" as="geometry">
            <mxPoint x="260" y="126" as="sourcePoint" />
            <mxPoint x="340" y="126" as="targetPoint" />
          </mxGeometry>
        </mxCell>
        <mxCell id="0UwZ2OLHna-2qC7f4V6y-228" value="" style="html=1;points=[[0,0,0,0,5],[0,1,0,0,-5],[1,0,0,0,5],[1,1,0,0,-5]];perimeter=orthogonalPerimeter;outlineConnect=0;targetShapes=umlLifeline;portConstraint=eastwest;newEdgeStyle={&quot;curved&quot;:0,&quot;rounded&quot;:0};fillColor=#f0a30a;fontColor=#000000;strokeColor=#BD7000;container=0;" parent="LfEjnsofNceTjmzkakA1-4" vertex="1">
          <mxGeometry x="328" y="50" width="10" height="20" as="geometry" />
        </mxCell>
        <mxCell id="0UwZ2OLHna-2qC7f4V6y-229" value="13.1: send RedemptionCompleted" style="html=1;verticalAlign=bottom;endArrow=block;curved=0;rounded=0;exitX=1.032;exitY=0.419;exitDx=0;exitDy=0;exitPerimeter=0;entryX=-0.031;entryY=-0.017;entryDx=0;entryDy=0;entryPerimeter=0;" parent="LfEjnsofNceTjmzkakA1-4" source="0UwZ2OLHna-2qC7f4V6y-224" target="0UwZ2OLHna-2qC7f4V6y-228" edge="1">
          <mxGeometry relative="1" as="geometry">
            <mxPoint x="138.41000000000008" y="50.88000000000011" as="sourcePoint" />
            <mxPoint x="317" y="56" as="targetPoint" />
          </mxGeometry>
        </mxCell>
        <mxCell id="0UwZ2OLHna-2qC7f4V6y-230" value="" style="html=1;verticalAlign=bottom;endArrow=open;dashed=1;endSize=8;curved=0;rounded=0;entryX=1.014;entryY=0.738;entryDx=0;entryDy=0;entryPerimeter=0;exitX=-0.04;exitY=1.02;exitDx=0;exitDy=0;exitPerimeter=0;" parent="LfEjnsofNceTjmzkakA1-4" source="0UwZ2OLHna-2qC7f4V6y-228" target="0UwZ2OLHna-2qC7f4V6y-224" edge="1">
          <mxGeometry relative="1" as="geometry">
            <mxPoint x="138.71000000000004" y="70.22000000000025" as="targetPoint" />
            <mxPoint x="317" y="66" as="sourcePoint" />
          </mxGeometry>
        </mxCell>
      </root>
    </mxGraphModel>
  </diagram>
</mxfile>
